<svg id="Capa_1" enable-background="new 0 0 512 512" height="512" viewBox="0 0 512 512" width="512" xmlns="http://www.w3.org/2000/svg"><g><path d="m504.5 233.5h-226v-226c0-4.142-3.357-7.5-7.5-7.5h-30c-4.143 0-7.5 3.358-7.5 7.5v226h-226c-4.143 0-7.5 3.358-7.5 7.5v30c0 4.142 3.357 7.5 7.5 7.5h101.75c4.143 0 7.5-3.358 7.5-7.5s-3.357-7.5-7.5-7.5h-94.25v-15h226c4.143 0 7.5-3.358 7.5-7.5v-226h15v226c0 4.142 3.357 7.5 7.5 7.5h226v15h-226c-4.143 0-7.5 3.358-7.5 7.5v226h-15v-226c0-4.142-3.357-7.5-7.5-7.5h-101.75c-4.143 0-7.5 3.358-7.5 7.5s3.357 7.5 7.5 7.5h94.25v226c0 4.142 3.357 7.5 7.5 7.5h30c4.143 0 7.5-3.358 7.5-7.5v-226h226c4.143 0 7.5-3.358 7.5-7.5v-30c0-4.142-3.357-7.5-7.5-7.5z"/></g></svg>