<?xml version="1.0" standalone="no"?>
<!DOCTYPE svg PUBLIC "-//W3C//DTD SVG 20010904//EN"
 "http://www.w3.org/TR/2001/REC-SVG-20010904/DTD/svg10.dtd">
<svg version="1.0" xmlns="http://www.w3.org/2000/svg"
 width="3456.000000pt" height="4573.000000pt" viewBox="0 0 3456.000000 4573.000000"
 preserveAspectRatio="xMidYMid meet">
<metadata>
Created by potrace 1.16, written by Peter Selinger 2001-2019
</metadata>
<g transform="translate(0.000000,4573.000000) scale(0.100000,-0.100000)"
fill="#000000" stroke="none">
<path d="M29360 45410 c-107 -26 -321 -78 -475 -115 -154 -37 -408 -99 -565
-137 -535 -129 -1037 -250 -1735 -418 -115 -27 -329 -79 -475 -114 -146 -36
-353 -86 -460 -111 -107 -26 -321 -78 -475 -115 -438 -106 -853 -206 -1060
-255 -104 -25 -255 -62 -335 -81 -205 -50 -418 -101 -535 -129 -55 -13 -210
-51 -345 -83 -135 -33 -321 -78 -415 -100 -93 -23 -237 -57 -320 -77 -82 -20
-233 -56 -335 -81 -102 -25 -252 -61 -335 -81 -82 -19 -267 -64 -410 -99 -143
-34 -300 -72 -350 -84 -96 -23 -921 -222 -1120 -270 -66 -16 -214 -52 -330
-80 -115 -27 -302 -72 -415 -100 -239 -58 -560 -134 -610 -146 -19 -4 -37 -8
-40 -9 -31 -9 -78 -20 -205 -51 -82 -19 -242 -58 -355 -85 -113 -28 -232 -56
-265 -64 -33 -8 -134 -32 -225 -54 -91 -22 -214 -52 -275 -66 -60 -14 -218
-53 -350 -85 -275 -66 -781 -188 -965 -232 -179 -42 -390 -93 -580 -140 -91
-22 -172 -42 -180 -43 -18 -4 -407 -97 -710 -171 -124 -30 -308 -74 -410 -99
-102 -24 -268 -65 -370 -89 -102 -25 -315 -77 -475 -115 -159 -38 -434 -104
-610 -146 -176 -43 -394 -95 -485 -117 -91 -22 -172 -41 -180 -43 -8 -2 -73
-18 -145 -35 -71 -17 -193 -46 -270 -65 -77 -19 -234 -57 -350 -85 -115 -27
-304 -73 -420 -101 -115 -27 -255 -61 -310 -74 -55 -13 -219 -53 -365 -88
-146 -36 -290 -70 -320 -77 -30 -6 -66 -15 -80 -20 -14 -5 -68 -18 -120 -30
-133 -30 -398 -94 -1025 -246 -121 -29 -278 -67 -350 -84 -71 -17 -193 -46
-270 -65 -459 -111 -697 -169 -830 -200 -125 -30 -735 -178 -785 -190 -8 -2
-64 -15 -125 -30 -130 -30 -206 -49 -455 -109 -102 -25 -336 -81 -520 -125
-184 -45 -409 -99 -500 -121 -91 -22 -232 -56 -315 -75 -189 -46 -333 -80
-660 -160 -143 -34 -368 -88 -500 -120 -132 -31 -339 -81 -460 -111 -173 -41
-574 -138 -665 -159 -8 -2 -53 -13 -100 -24 -47 -11 -96 -22 -110 -25 -14 -2
-32 -7 -40 -10 -8 -3 -26 -7 -40 -10 -27 -4 -131 -28 -220 -51 -30 -7 -80 -18
-110 -24 -62 -13 -71 -15 -153 -35 -31 -8 -57 -12 -57 -9 0 3 -6 1 -12 -5 -7
-5 -35 -13 -61 -17 -26 -4 -67 -13 -90 -20 l-42 -12 -3 -2470 -2 -2471 -34
-16 c-19 -9 -39 -16 -45 -16 -6 0 -25 -6 -43 -14 -71 -31 -106 -44 -178 -70
-41 -15 -98 -36 -125 -47 -28 -10 -55 -19 -62 -19 -12 0 -23 -23 -23 -48 0
-20 287 -780 306 -809 l14 -22 52 19 c29 10 69 26 89 34 20 8 39 12 43 9 3 -4
6 -6938 6 -15410 l0 -15403 1774 0 c1173 0 1777 -3 1781 -10 8 -13 282 -13
290 0 9 14 3421 14 3430 0 8 -13 282 -13 290 0 4 7 527 10 1536 10 l1529 0 0
145 0 145 -1535 0 -1535 0 0 585 0 585 -182 0 c-336 0 -533 37 -758 141 -389
181 -699 564 -835 1034 -25 85 -60 283 -52 291 2 2 358 4 790 4 l787 0 0 45 0
45 125 0 125 0 0 305 c0 264 -2 305 -15 305 -12 0 -15 14 -15 70 l0 70 -1272
0 c-1109 1 -1270 3 -1248 15 22 12 -57 14 -625 14 -357 0 -644 -3 -637 -6 6
-2 12 -9 12 -14 0 -5 -660 -8 -1672 -7 l-1673 3 0 805 0 805 642 3 642 2 -5
33 c-2 17 -29 307 -59 642 -31 336 -57 630 -60 655 -2 25 -12 129 -21 232
l-18 188 -560 2 -561 3 0 5110 0 5110 238 3 237 2 0 1340 0 1340 -237 2 -238
3 0 5465 0 5464 55 23 c30 12 235 91 455 174 220 83 403 154 408 158 4 4 -11
54 -34 112 -22 57 -53 138 -69 179 -134 360 -202 536 -208 542 -4 4 -137 -42
-296 -102 -158 -61 -294 -110 -302 -110 -12 0 -14 338 -12 2292 l3 2292 95 23
c52 12 1861 448 4020 968 2159 520 3937 949 3953 952 l27 6 0 -1994 c0 -1097
0 -2868 0 -3936 l0 -1943 237 0 c427 1 698 -54 1010 -205 380 -183 673 -458
912 -857 170 -284 315 -716 324 -963 l2 -70 -1125 -5 -1125 -5 0 -70 0 -70
-117 -3 -118 -3 0 -254 0 -255 4050 0 4050 0 0 -5950 0 -5950 -225 0 -225 0 0
-145 0 -145 370 0 370 0 0 1910 0 1910 640 0 640 0 0 865 0 865 -640 0 -640 0
0 7034 0 7035 83 31 c45 17 134 51 197 75 63 25 241 92 394 150 154 57 281
106 282 108 3 3 -59 171 -252 677 -31 80 -59 149 -64 153 -9 10 -38 -1 -384
-132 -131 -50 -243 -91 -247 -91 -5 0 -9 933 -9 2128 l0 2129 48 11 c49 11
3347 806 3602 868 80 19 258 62 395 95 138 33 324 78 415 100 91 22 977 236
1970 475 993 239 2055 495 2360 569 519 125 1023 247 2080 501 499 120 546
132 885 214 l250 61 108 -11 c466 -46 1112 -244 1837 -562 552 -243 972 -537
1425 -999 312 -319 597 -687 830 -1074 52 -86 165 -297 165 -308 0 -4 -70 -7
-155 -7 l-155 0 -2 -412 c-2 -227 -2 -452 0 -500 l3 -88 184 0 185 0 -1
-10882 c0 -7496 4 -10884 11 -10886 13 -5 13 -149 0 -154 -7 -2 -10 -1368 -10
-4131 l0 -4127 -4965 0 -4965 0 0 1705 c0 938 -3 1704 -7 1704 -5 -1 -34 -1
-65 0 -51 1 -57 3 -60 24 -3 22 -6 22 -160 25 l-158 3 0 -105 0 -105 -40 -3
-41 -3 1 -787 0 -788 -39 0 c-115 0 -349 69 -526 154 -551 267 -871 733 -911
1328 -4 54 -11 98 -15 98 -5 0 -9 47 -9 105 l0 105 -2410 0 -2410 0 0 -6220 0
-6220 -195 0 -195 0 0 1060 0 1060 -72 0 c-103 0 -358 -35 -475 -66 -466 -120
-900 -384 -1179 -716 -211 -252 -355 -550 -418 -868 -25 -126 -46 -310 -46
-407 l0 -53 38 0 38 0 12 153 c39 508 219 906 561 1244 273 271 675 489 1065
578 95 21 276 46 288 39 6 -4 9 -174 8 -437 -1 -238 -1 -701 -1 -1029 l1 -598
65 0 65 0 0 -125 0 -125 218 -2 217 -3 3 -748 2 -747 205 0 205 0 0 5170 0
5170 8379 0 c4609 0 8386 3 8395 6 15 6 16 1398 16 15691 l0 15684 -36 87
c-210 507 -512 1002 -890 1457 -144 173 -484 512 -664 661 -465 386 -939 667
-1510 894 -467 186 -995 314 -1509 365 -225 22 -260 20 -481 -35z m-12050
-5353 l0 -2154 -300 -113 c-166 -63 -299 -119 -297 -124 38 -106 311 -823 316
-827 3 -4 68 17 144 46 l137 53 0 -3514 0 -3514 -3910 0 -3910 0 0 85 0 85
1155 0 1155 0 0 100 c0 60 -4 100 -10 100 -5 0 -10 18 -10 40 0 67 -30 257
-56 358 -182 704 -631 1281 -1217 1568 -272 132 -548 201 -886 220 l-120 7 -4
-39 c-2 -21 -3 1745 -3 3925 l1 3964 3905 942 c2148 519 3906 943 3908 944 1
0 2 -968 2 -2152z m3450 -26072 l0 -285 -837 0 -836 0 6 -136 c8 -159 33 -293
83 -435 194 -559 603 -954 1119 -1083 103 -26 212 -41 348 -50 l77 -4 0 42 0
43 -111 7 c-405 24 -763 195 -1012 481 -92 106 -206 281 -262 400 -83 178
-149 401 -156 530 l-3 50 792 3 792 2 0 70 0 70 100 0 100 0 0 290 0 290 523
0 523 0 12 -147 c7 -82 21 -187 31 -234 107 -477 434 -873 916 -1109 219 -107
400 -156 613 -167 l132 -6 0 831 0 832 90 0 90 0 0 -1618 0 -1619 -747 -6
c-441 -4 -751 -3 -756 2 -5 5 -8 96 -5 205 l4 196 -31 0 -31 0 4 -196 c3 -114
0 -200 -5 -205 -6 -6 -270 -7 -687 -3 l-677 7 1 451 c1 248 1 490 1 539 l-1
87 -100 0 -100 0 0 -92 c0 -51 0 -294 0 -540 l0 -448 -1655 0 -1655 0 0 390 0
390 -40 40 c-69 69 -72 90 -68 547 3 443 3 444 73 507 l35 33 0 666 0 667
1655 0 1655 0 0 -285z m-16501 -8945 l0 -200 -809 0 -810 0 0 -104 c0 -210 58
-439 170 -673 240 -502 662 -827 1170 -902 118 -17 141 -20 213 -20 l67 -1 0
-545 0 -545 -1575 0 -1575 0 0 1588 c0 874 3 1592 7 1595 3 4 712 7 1574 7
l1568 0 0 -200z m3718 -2 l3 -198 -815 0 -815 0 0 -88 c0 -480 282 -1026 681
-1319 152 -111 365 -209 550 -252 45 -10 236 -41 248 -39 3 0 39 0 79 -1 l72
-1 0 -545 0 -545 -629 0 c-538 0 -633 -2 -657 -15 -23 -12 -71 -15 -234 -15
-113 0 -215 3 -227 6 -16 4 -23 14 -23 30 0 20 -5 24 -30 24 -25 0 -30 -4 -30
-24 0 -33 -24 -36 -257 -36 -149 0 -202 3 -230 15 -30 13 -118 15 -579 15
l-544 0 0 584 0 584 -237 5 c-251 5 -340 16 -501 63 -374 108 -712 405 -911
801 -82 164 -154 399 -165 540 l-5 63 787 2 787 3 3 43 3 42 120 0 119 0 1
118 c0 64 0 168 -1 230 l-1 112 1718 -2 1718 -3 2 -197z"/>
<path d="M24098 19063 c-2 -5 -2 -52 0 -105 l3 -98 1030 0 1029 0 0 -53 c0
-70 -32 -246 -69 -377 -161 -571 -484 -1043 -911 -1329 -259 -173 -564 -275
-900 -301 -74 -5 -141 -10 -147 -10 -8 0 -13 -15 -13 -40 l0 -40 70 0 c345 0
739 122 1040 323 140 93 176 123 310 257 289 287 537 733 645 1159 30 118 55
271 56 343 1 29 5 58 11 64 5 7 7 56 6 110 l-3 99 -1077 3 c-592 1 -1078 -1
-1080 -5z"/>
<path d="M13870 9885 l0 -7835 -210 0 -210 0 0 1060 0 1060 -77 0 c-135 0
-378 -38 -543 -85 -365 -105 -715 -304 -973 -554 -329 -319 -521 -706 -582
-1174 -8 -65 -15 -158 -15 -208 l0 -89 40 0 40 0 1 58 c6 584 263 1112 716
1475 327 262 765 444 1156 481 l47 4 0 -1034 0 -1034 80 0 80 0 0 -125 0 -125
645 0 645 0 0 145 0 145 -275 0 -275 0 0 7690 0 7690 225 0 225 0 0 145 0 145
-370 0 -370 0 0 -7835z"/>
</g>
</svg>
